# xmcd CD database file
#
# Track frame offsets:
#	150
#	16132
#	31599
#	49682
#	65797
#	82187
#	98289
#	112169
#	128941
#	144411
#	159424
#	172312
#	189135
#	205320
#	220195
#	240110
#	253794
#	268529
#	286061
#	301851
#	316164
#	338447
#
# Disc length: 4799 seconds
#
# Revision: 1
# Processed by: cddbd v1.5.2PL0 Copyright (c) Steve Scherf et al.
# Submitted via: CDex 1.70beta2
#
DISCID=2712bd16
DTITLE=Palast Orchester - The Best Hits
DYEAR=2002
DGENRE=Vocal
TTITLE0=Follow Me
TTITLE1=Supreme
TTITLE2=There must be an angel
TTITLE3=Uptown girl
TTITLE4=Ooops...! I did it again!
TTITLE5=Mambo no.5 (A little bit of...)
TTITLE6=VMiss California
TTITLE7=Another day in paradise
TTITLE8=You're My mate
TTITLE9=Kiss
TTITLE10=We will rock you
TTITLE11=Angel
TTITLE12=Lady marmelade
TTITLE13=Dance with me
TTITLE14=Let's talk about sex
TTITLE15=Sex bomb
TTITLE16=Tainted love
TTITLE17=Super trouper
TTITLE18=Upside down
TTITLE19=Bongo bong
TTITLE20=Blue
TTITLE21=Around the world
EXTD=YEAR: 2002
EXTT0=
EXTT1=
EXTT2=
EXTT3=
EXTT4=
EXTT5=
EXTT6=
EXTT7=
EXTT8=
EXTT9=
EXTT10=
EXTT11=
EXTT12=
EXTT13=
EXTT14=
EXTT15=
EXTT16=
EXTT17=
EXTT18=
EXTT19=
EXTT20=
EXTT21=
PLAYORDER=
